<?xml version="1.0" encoding="UTF-8"?>
<svg width="339px" height="311px" viewBox="0 0 339 311" version="1.1" xmlns="http://www.w3.org/2000/svg" xmlns:xlink="http://www.w3.org/1999/xlink">
    <title>Logo</title>
    <defs>
        <radialGradient cx="0%" cy="0%" fx="0%" fy="0%" r="108.61219%" gradientTransform="translate(0.000000,0.000000),scale(0.917404,1.000000),rotate(40.701193),translate(-0.000000,-0.000000)" id="radialGradient-1">
            <stop stop-color="#06226F" offset="0%"></stop>
            <stop stop-color="#000E2B" offset="100%"></stop>
        </radialGradient>
    </defs>
    <g id="Page-1" stroke="none" stroke-width="1" fill="none" fill-rule="evenodd">
        <g id="kevinlearynet-kinsta" fill="url(#radialGradient-1)" fill-rule="nonzero">
            <path d="M254.721311,305.604668 C255.514754,305.604668 256.19399,305.874435 256.759016,306.413968 C257.324046,306.953501 257.606557,307.582957 257.606557,308.302334 C257.606557,309.021712 257.324046,309.651167 256.759016,310.1907 C256.19399,310.730233 255.514754,311 254.721311,311 C253.927869,311 253.242623,310.73623 252.665574,310.208685 C252.11257,309.657164 251.836066,309.021712 251.836066,308.302334 C251.836066,307.582957 252.11858,306.953501 252.683607,306.413968 C253.248636,305.874435 253.927869,305.604668 254.721311,305.604668 Z M100.409836,285.462096 L112.852459,301.468247 L112.852459,285.462096 L118.262295,285.462096 L118.262295,310.640311 L113.57377,310.640311 L101.131148,294.63416 L101.131148,310.640311 L95.7213115,310.640311 L95.7213115,285.462096 L100.409836,285.462096 Z M339,285.462096 L339,290.317895 L331.786885,290.317895 L331.786885,310.640311 L326.377049,310.640311 L326.377049,290.317895 L319.163934,290.317895 L319.163934,285.462096 L339,285.462096 Z M314.213115,285.462096 L314.213115,290.317895 L301.04918,290.317895 L301.04918,295.353538 L311.327869,295.353538 L311.327869,300.209337 L301.04918,300.209337 L301.04918,305.784513 L314.57377,305.784513 L314.57377,310.640311 L295.639344,310.640311 L295.639344,285.462096 L314.213115,285.462096 Z M269.229508,285.462096 L281.672131,301.468247 L281.672131,285.462096 L287.081967,285.462096 L287.081967,310.640311 L282.393443,310.640311 L269.95082,294.63416 L269.95082,310.640311 L264.540984,310.640311 L264.540984,285.462096 L269.229508,285.462096 Z M5.40983607,285.462096 L5.40983607,296.432604 L15.3278689,285.462096 L21.6393443,285.462096 L12.2622951,295.893071 L22.3606557,310.640311 L16.0491803,310.640311 L8.6557377,299.849648 L5.40983607,303.446536 L5.40983607,310.640311 L0,310.640311 L0,285.462096 L5.40983607,285.462096 Z M46.2459016,285.462096 L46.2459016,290.317895 L33.0819672,290.317895 L33.0819672,295.353538 L43.3606557,295.353538 L43.3606557,300.209337 L33.0819672,300.209337 L33.0819672,305.784513 L46.6065574,305.784513 L46.6065574,310.640311 L27.6721311,310.640311 L27.6721311,285.462096 L46.2459016,285.462096 Z M56.9672131,285.462096 L63.4590164,304.165913 L69.9508197,285.462096 L75.7213115,285.462096 L66.3442623,310.640311 L60.5737705,310.640311 L51.1967213,285.462096 L56.9672131,285.462096 Z M87.1639344,285.462096 L87.1639344,310.640311 L81.7540984,310.640311 L81.7540984,285.462096 L87.1639344,285.462096 Z M233.721311,285.462096 L239.672131,296.25276 L245.622951,285.462096 L251.393443,285.462096 L242.377049,301.648092 L242.377049,310.640311 L236.967213,310.640311 L236.967213,301.648092 L227.95082,285.462096 L233.721311,285.462096 Z M132.229508,285.462096 L132.229508,305.784513 L143.95082,305.784513 L143.95082,310.640311 L126.819672,310.640311 L126.819672,285.462096 L132.229508,285.462096 Z M168.737705,285.462096 L168.737705,290.317895 L155.57377,290.317895 L155.57377,295.353538 L165.852459,295.353538 L165.852459,300.209337 L155.57377,300.209337 L155.57377,305.784513 L169.098361,305.784513 L169.098361,310.640311 L150.163934,310.640311 L150.163934,285.462096 L168.737705,285.462096 Z M189.016393,285.462096 L198.934426,310.640311 L193.163934,310.640311 L191,304.705446 L181.262295,304.705446 L179.098361,310.640311 L173.327869,310.640311 L183.245902,285.462096 L189.016393,285.462096 Z M215.786885,285.462096 L216.524066,285.486016 C218.696656,285.629532 220.518689,286.418869 221.990164,287.854027 C223.625138,289.448648 224.442623,291.408952 224.442623,293.734938 C224.442623,294.742067 224.286341,295.683255 223.97377,296.558495 C223.661203,297.433739 223.288525,298.141126 222.855738,298.680659 C222.422951,299.220192 221.984154,299.681794 221.539344,300.065461 C221.094538,300.449131 220.715849,300.712901 220.403279,300.856776 L220.403279,300.856776 L219.934426,301.108558 L225.344262,310.640311 L219.57377,310.640311 L214.704918,301.827936 L210.016393,301.827936 L210.016393,310.640311 L204.606557,310.640311 L204.606557,285.462096 L215.786885,285.462096 Z M186.131148,291.75665 L183.065574,300.029492 L189.196721,300.029492 L186.131148,291.75665 Z M215.606557,290.317895 L210.016393,290.317895 L210.016393,296.972137 L215.606557,296.972137 C216.592351,296.972137 217.409836,296.660408 218.059016,296.036947 C218.708197,295.413488 219.032787,294.646151 219.032787,293.734938 C219.032787,292.751791 218.708197,291.936495 218.059016,291.289055 C217.409836,290.641615 216.592351,290.317895 215.606557,290.317895 L215.606557,290.317895 Z M169.270492,0 C239.891393,0 297.139344,57.0944632 297.139344,127.526023 C297.139344,197.957583 239.886066,255.052045 169.270492,255.052045 C98.6495902,255.052045 41.4016393,197.952269 41.4016393,127.526023 C41.4016393,57.0944632 98.6495902,0 169.270492,0 Z M169.270492,13.5283856 C106.247131,13.5283856 54.9717213,64.6663208 54.9717213,127.526023 C54.9717213,190.380412 106.241803,241.518346 169.270492,241.518346 C232.293852,241.518346 283.569262,190.380412 283.569262,127.526023 C283.569262,64.6663208 232.293852,13.5283856 169.270492,13.5283856 Z M169.267866,22.8892862 C227.123426,22.8892862 274.188525,69.8334399 274.188525,127.528643 C274.188525,185.223846 227.123426,232.162759 169.273121,232.162759 C111.417561,232.162759 64.352459,185.223846 64.352459,127.528643 C64.352459,69.8334399 111.417561,22.8892862 169.267866,22.8892862 Z M148.610764,72.0418767 L137.445541,72.0418767 L137.445541,177.511167 L148.610764,177.511167 L148.610764,130.702599 L148.93023,130.383992 L196.44499,177.511167 L211.587525,177.511167 L156.709148,122.917986 L208.563279,72.0418767 L193.23439,72.0418767 L148.610764,115.802446 L148.610764,72.0418767 Z" id="Logo"></path>
        </g>
    </g>
</svg>